<svg width="32" height="32" viewBox="0 0 32 32" fill="none" xmlns="http://www.w3.org/2000/svg">
<path d="M13.4999 28.08C13.4999 29.4607 14.6192 30.58 15.9999 30.58C17.3806 30.58 18.4999 29.4607 18.4999 28.08L18.4999 18.2898H28.2899C29.6706 18.2898 30.7899 17.1705 30.7899 15.7898C30.7899 14.4091 29.6706 13.2898 28.2899 13.2898H18.4999L18.4999 3.5C18.4999 2.11929 17.3806 1 15.9999 1C14.6192 1 13.4999 2.11929 13.4999 3.5L13.4999 13.2898H3.70996C2.32925 13.2898 1.20996 14.4091 1.20996 15.7898C1.20996 17.1705 2.32925 18.2898 3.70996 18.2898H13.4999L13.4999 28.08Z" fill="black"/>
</svg>
