<?xml version="1.0" encoding="UTF-8" standalone="no"?>
<!-- Created with Inkscape (http://www.inkscape.org/) -->

<svg
   xmlns:dc="http://purl.org/dc/elements/1.1/"
   xmlns:cc="http://creativecommons.org/ns#"
   xmlns:rdf="http://www.w3.org/1999/02/22-rdf-syntax-ns#"
   xmlns:svg="http://www.w3.org/2000/svg"
   xmlns="http://www.w3.org/2000/svg"
   xmlns:sodipodi="http://sodipodi.sourceforge.net/DTD/sodipodi-0.dtd"
   xmlns:inkscape="http://www.inkscape.org/namespaces/inkscape"
   version="1.1"
   width="50.000122"
   height="149.99861"
   id="svg2"
   inkscape:version="0.92.4 (5da689c313, 2019-01-14)"
   sodipodi:docname="menu-dys.svg">
  <sodipodi:namedview
     pagecolor="#ffffff"
     bordercolor="#666666"
     borderopacity="1"
     objecttolerance="10"
     gridtolerance="10"
     guidetolerance="10"
     inkscape:pageopacity="0"
     inkscape:pageshadow="2"
     inkscape:window-width="1874"
     inkscape:window-height="1016"
     id="namedview41"
     showgrid="false"
     inkscape:object-nodes="true"
     fit-margin-top="0"
     fit-margin-left="0"
     fit-margin-right="0"
     fit-margin-bottom="0"
     inkscape:zoom="3.8486087"
     inkscape:cx="93.020564"
     inkscape:cy="75.910715"
     inkscape:window-x="46"
     inkscape:window-y="27"
     inkscape:window-maximized="1"
     inkscape:current-layer="svg2" />
  <defs
     id="defs4">
    <linearGradient
       id="linearGradient3962-2">
      <stop
         id="stop3964-5"
         offset="0"
         style="stop-color:#d3e9ff;stop-opacity:0.79130435;" />
      <stop
         id="stop3966-5"
         offset="1"
         style="stop-color:#4e689d;stop-opacity:0.73913044;" />
    </linearGradient>
    <linearGradient
       id="linearGradient4750">
      <stop
         id="stop4752"
         offset="0"
         style="stop-color:#ffffff;stop-opacity:1;" />
      <stop
         id="stop4758"
         offset="0.37931034"
         style="stop-color:#fefefe;stop-opacity:1.0000000;" />
      <stop
         id="stop4754"
         offset="1.0000000"
         style="stop-color:#1d1d1d;stop-opacity:1.0000000;" />
    </linearGradient>
    <clipPath
       clipPathUnits="userSpaceOnUse"
       id="clipPath11023">
      <path
         style="color:#000000;display:inline;overflow:visible;visibility:visible;fill:url(#radialGradient11027);fill-opacity:1;fill-rule:nonzero;stroke:none;stroke-width:0.99999982;marker:none;enable-background:accumulate"
         d="m 23.299073,6.3522805 c -0.11607,0.026993 -0.245637,0.056685 -0.337413,0.167357 l -5.905005,7.0856825 -0.843264,1.01224 -1.01224,-0.843533 -0.590609,-0.506121 -0.50612,-0.421631 V 12.086959 C 14.1881,11.182961 13.923568,10.340237 13.17667,9.7250653 11.971429,8.73199 10.195015,8.8696547 9.2119269,10.062479 c -0.9833577,1.192824 -0.7825293,2.971667 0.4216318,3.964473 0.7468983,0.614362 1.6611543,0.759855 2.5308713,0.50639 l 0.674826,-0.253735 0.590339,0.50612 0.590339,0.421902 1.01224,0.843264 -0.843264,1.096728 -5.8205167,7.001194 c -0.1835529,0.224043 -0.2321405,0.567665 0,0.759315 l 5.3986147,4.386375 c 0.194351,-0.682385 -0.05129,-1.44197 0.421902,-2.02448 h 0.08368 c 1.915968,-2.325184 5.348678,-2.676634 7.676291,-0.759316 2.327343,1.918668 2.675283,5.436136 0.759045,7.76051 -0.478317,0.579271 -1.227375,0.521506 -1.855774,0.843803 l 5.314127,4.386375 c 0.23214,0.188951 0.491544,0.224042 0.674827,0 L 31.227479,34.187 c -0.687783,-0.197049 -1.436031,-0.02699 -2.02448,-0.50612 -2.327343,-1.918398 -2.675284,-5.435596 -0.759046,-7.760509 1.915969,-2.324914 5.433167,-2.676904 7.76051,-0.759315 0.592498,0.489114 0.517727,1.296747 0.843533,1.940262 l 4.386375,-5.314397 c 0.183553,-0.221343 0.145763,-0.483176 -0.08368,-0.674827 l -7.085682,-5.904465 -1.01224,-0.843804 0.843803,-1.01224 0.421632,-0.590339 0.50612,-0.590338 0.674827,0.08368 c 0.904808,0.08908 1.836879,-0.188951 2.446383,-0.928022 0.982818,-1.192554 0.783879,-2.9708575 -0.421902,-3.9644726 -1.204971,-0.9930752 -2.897167,-0.7714621 -3.880255,0.4219018 -0.608694,0.7379907 -0.765253,1.6584546 -0.50612,2.5303308 l 0.167357,0.674827 -0.421632,0.590608 -0.421901,0.506121 -0.927752,1.096728 -1.012241,-0.928022 -7.085682,-5.8202466 c -0.11607,-0.094476 -0.221343,-0.099874 -0.337414,-0.083678 z"
         id="path11025"
         inkscape:connector-curvature="0"
         sodipodi:nodetypes="cccccccccccccccccccccccccccccccccccccccccccccccccccc" />
    </clipPath>
  </defs>
  <metadata
     id="metadata7">
    <rdf:RDF>
      <cc:Work
         rdf:about="">
        <dc:format>image/svg+xml</dc:format>
        <dc:type
           rdf:resource="http://purl.org/dc/dcmitype/StillImage" />
        <dc:title></dc:title>
      </cc:Work>
    </rdf:RDF>
  </metadata>
  <path
     d="M 50.000122,25 A 25,25 0 0 1 1.2175e-4,25 25,25 0 1 1 50.000122,25 Z"
     id="path3010"
     style="color:#000000;display:inline;overflow:visible;visibility:visible;fill:#e0ecec;fill-opacity:1;fill-rule:nonzero;stroke:none;stroke-width:1;marker:none;enable-background:accumulate"
     inkscape:connector-curvature="0" />
  <g
     id="g1494"
     transform="matrix(0.93503666,0,0,0.93503666,-61.220851,-4.7092924)">
    <path
       style="opacity:1;vector-effect:none;fill:#434e52;fill-opacity:1;stroke:none;stroke-width:1;stroke-linecap:butt;stroke-linejoin:miter;stroke-miterlimit:4;stroke-dasharray:none;stroke-dashoffset:0;stroke-opacity:1;marker:none"
       inkscape:connector-curvature="0"
       d="m 94.666465,14.228836 q 2.38576,0.3767 4.075926,1.300367 1.362559,0.721378 2.404559,1.763329 1.04194,1.122144 1.1221,2.003829 0.1603,0.961797 1.2023,3.526699 1.12214,2.645014 0.72137,3.526657 -0.32061,0.881685 1.84349,2.805319 2.24424,2.003831 2.16409,2.725168 0,0.801532 -0.9618,1.362604 -0.88168,0.641225 -0.80153,1.522912 0.16031,0.881642 -0.0802,1.362561 -0.16031,0.561072 -0.16031,1.122144 0.0802,0.561031 -0.32061,1.202257 -0.32061,0.641226 -0.32061,1.442758 0.0802,0.80153 -0.32062,1.522869 -0.32061,0.801531 -1.1221,1.362604 -0.72138,0.561071 -2.88547,0.961796 l -2.083985,0.400765 c 0,0 1.676105,1.100256 1.927235,5.74621 v 0 l -6.415729,0.02474 q -7.374011,0.08016 -9.938872,0 -2.484708,0 -2.645013,-0.160307 -0.08016,-0.08016 0,-2.3244 0.08016,-2.164094 0.320614,-2.965627 0.240459,-0.721378 0.08016,-1.843481 -0.160308,-1.122144 -0.881685,-1.76337 -0.641185,-0.641185 -1.282411,-3.366353 -0.641225,-2.645055 -1.603062,-4.08777 -0.881644,-1.442758 -1.282411,-2.484706 -0.400766,-0.96184 -0.801532,-2.885473 -0.400766,-1.923679 -0.400766,-3.206087 0.08016,-1.282451 0.320613,-2.404554 0.24046,-1.041991 0.881685,-2.645014 0.72138,-1.603063 2.164096,-3.045778 1.442757,-1.362607 2.164093,-1.763371 0.32664,-0.425796 2.410623,-0.906717 c 0,0 -0.205134,-0.08175 2.638986,-0.375694 2.844078,-0.293992 5.480971,0.166419 7.866734,0.543117 z"
       id="path865" />
    <path
       d="m 81.62634,23.932823 c -0.359583,1.008966 0.171201,2.12082 1.184106,2.481941 0.633366,0.225509 1.303177,0.09671 1.806327,-0.272076 l 0.318814,0.113602 -1.447096,4.061557 c -0.160275,0.450079 0.07429,0.942022 0.526898,1.102737 l 3.964301,1.4124 c -0.303476,-0.484961 -0.395766,-1.094319 -0.194472,-1.671188 0.359422,-1.009043 1.473646,-1.534752 2.486689,-1.173951 1.013422,0.36107 1.543808,1.472932 1.184224,2.481898 -0.206137,0.578756 -0.666118,0.987096 -1.207397,1.171791 l 3.964257,1.412281 c 0.451867,0.161117 0.944908,-0.07155 1.104924,-0.522351 l 1.406521,-3.947335 c -0.486044,0.301224 -1.095138,0.396465 -1.676369,0.189465 -1.01341,-0.361073 -1.544076,-1.47297 -1.184504,-2.481931 0.35939,-1.00876 1.473614,-1.534471 2.4867,-1.173548 0.581437,0.207194 0.992367,0.666513 1.17901,1.206811 L 98.93575,24.37747 c 0.160331,-0.449965 -0.07447,-0.941821 -0.525711,-1.103165 l -4.079166,-1.453275 0.113196,-0.31732 c 0.605558,-0.154263 1.129193,-0.589125 1.353965,-1.219673 0.359466,-1.008924 -0.171038,-2.120743 -1.184461,-2.481812 -1.013086,-0.360921 -2.127147,0.164866 -2.48657,1.173907 -0.224654,0.630506 -0.09358,1.298406 0.277558,1.800981 l -0.112958,0.317235 -4.079167,-1.453275 c -0.451824,-0.160998 -0.94469,0.07174 -1.104686,0.522265 l -1.447052,4.061677 -0.318857,-0.113723 c -0.157435,-0.603332 -0.594205,-1.126819 -1.227551,-1.352605 -1.013043,-0.360801 -2.127073,0.164704 -2.486538,1.173626 z"
       id="path13018-1"
       style="color:#000000;display:inline;overflow:visible;visibility:visible;opacity:1;vector-effect:none;fill:#e0ecec;fill-opacity:1;fill-rule:nonzero;stroke:none;stroke-width:1.2612828;stroke-linecap:butt;stroke-linejoin:miter;stroke-miterlimit:4;stroke-dasharray:none;stroke-dashoffset:0;stroke-opacity:1;marker:none;enable-background:accumulate"
       inkscape:connector-curvature="0" />
  </g>
  <g
     id="g1558">
    <path
       inkscape:connector-curvature="0"
       style="color:#000000;display:inline;overflow:visible;visibility:visible;opacity:1;vector-effect:none;fill:#434e52;fill-opacity:1;fill-rule:nonzero;stroke:none;stroke-width:0.93503666;stroke-linecap:butt;stroke-linejoin:miter;stroke-miterlimit:4;stroke-dasharray:none;stroke-dashoffset:0;stroke-opacity:1;marker:none;enable-background:accumulate"
       id="path3789"
       d="M 1e-7,125.0002 A 25,25 0 0 0 50,125.0002 25,25 0 1 0 1e-7,125.0002 Z" />
    <path
       id="path1496"
       d="m 27.295643,108.59381 q 2.230773,0.35223 3.81114,1.21589 1.274043,0.67451 2.248351,1.64878 0.974252,1.04924 1.049205,1.87365 0.149886,0.89932 1.124195,3.29759 1.049242,2.47319 0.674507,3.29756 -0.299782,0.82441 1.723731,2.62307 2.098446,1.87366 2.023503,2.54814 0,0.74946 -0.899318,1.27408 -0.824403,0.59957 -0.74946,1.42398 0.149896,0.82437 -0.07499,1.27404 -0.149896,0.52463 -0.149896,1.04925 0.07499,0.52458 -0.299782,1.12415 -0.299782,0.59957 -0.299782,1.34903 0.07499,0.74946 -0.299791,1.42394 -0.299783,0.74946 -1.049205,1.27409 -0.674517,0.52462 -2.69802,0.89931 l -1.948603,0.37473 c 0,0 1.56722,1.02878 1.802036,5.37292 v 0 l -5.998942,0.0231 q -6.894971,0.075 -9.29321,0 -2.323293,0 -2.473184,-0.14989 -0.07495,-0.075 0,-2.1734 0.07495,-2.02351 0.299786,-2.77297 0.224838,-0.67451 0.07495,-1.72372 -0.149894,-1.04925 -0.824408,-1.64882 -0.599532,-0.59953 -1.199102,-3.14766 -0.599568,-2.47322 -1.498921,-3.82222 -0.82437,-1.34903 -1.199102,-2.32329 -0.374731,-0.89935 -0.749461,-2.69802 -0.374731,-1.79871 -0.374731,-2.99781 0.07495,-1.19914 0.299785,-2.24835 0.224838,-0.9743 0.824407,-2.47318 0.674517,-1.49892 2.023509,-2.84791 1.349031,-1.27409 2.023507,-1.64882 0.30542,-0.39814 2.254021,-0.84781 c 0,0 -0.191808,-0.0764 2.467548,-0.35129 2.659317,-0.2749 5.124909,0.15561 7.355685,0.50783 z"
       inkscape:connector-curvature="0"
       style="opacity:1;vector-effect:none;fill:#e0ecec;fill-opacity:1;stroke:none;stroke-width:1.17934561;stroke-linecap:butt;stroke-linejoin:miter;stroke-miterlimit:4;stroke-dasharray:none;stroke-dashoffset:0;stroke-opacity:1;marker:none" />
    <path
       inkscape:connector-curvature="0"
       style="color:#000000;display:inline;overflow:visible;visibility:visible;opacity:1;vector-effect:none;fill:#434e52;fill-opacity:1;fill-rule:nonzero;stroke:none;stroke-width:0.93503666;stroke-linecap:butt;stroke-linejoin:miter;stroke-miterlimit:4;stroke-dasharray:none;stroke-dashoffset:0;stroke-opacity:1;marker:none;enable-background:accumulate"
       id="path1498"
       d="m 15.102648,117.66739 c -0.336223,0.94342 0.16008,1.98305 1.107183,2.32071 0.59222,0.21086 1.218518,0.0904 1.688982,-0.2544 l 0.298103,0.10622 -1.353088,3.7977 c -0.149863,0.42084 0.06946,0.88083 0.492669,1.0311 l 3.706766,1.32065 c -0.283761,-0.45346 -0.370055,-1.02323 -0.181838,-1.56262 0.336073,-0.94349 1.377913,-1.43505 2.325145,-1.09769 0.947587,0.33761 1.443517,1.37725 1.107293,2.32067 -0.192745,0.54115 -0.622844,0.92297 -1.12896,1.09566 l 3.706725,1.32054 c 0.422513,0.15065 0.883524,-0.0669 1.033145,-0.48842 l 1.315149,-3.6909 c -0.454469,0.28165 -1.023995,0.37071 -1.567467,0.17715 -0.947575,-0.33761 -1.443768,-1.37728 -1.107555,-2.32069 0.336043,-0.94323 1.377884,-1.43479 2.325156,-1.09731 0.543665,0.19373 0.9279,0.62321 1.102418,1.12841 l 1.315107,-3.69102 c 0.149916,-0.42073 -0.06963,-0.88063 -0.491559,-1.0315 l -3.81417,-1.35886 0.105843,-0.29671 c 0.566219,-0.14424 1.055837,-0.55085 1.266007,-1.14044 0.336114,-0.94338 -0.159927,-1.98297 -1.107515,-2.32058 -0.947272,-0.33748 -1.98896,0.15415 -2.325034,1.09765 -0.21006,0.58954 -0.0875,1.21405 0.259527,1.68398 l -0.10562,0.29662 -3.81417,-1.35886 c -0.422472,-0.15054 -0.88332,0.0671 -1.032922,0.48834 l -1.353047,3.79781 -0.298143,-0.10633 c -0.147208,-0.56414 -0.555603,-1.05362 -1.147805,-1.26474 -0.947233,-0.33736 -1.988891,0.15401 -2.325004,1.09739 z" />
  </g>
</svg>
